<svg width="355" height="58" viewBox="0 0 355 58" fill="none" xmlns="http://www.w3.org/2000/svg">
<path d="M32.233 11.0909V46H25.858L10.6705 24.0284H10.4148V46H3.03409V11.0909H9.51136L24.5795 33.0455H24.8864V11.0909H32.233ZM48.2241 46.5114C45.5764 46.5114 43.2866 45.9489 41.3548 44.8239C39.4344 43.6875 37.9514 42.108 36.906 40.0852C35.8605 38.0511 35.3378 35.6932 35.3378 33.0114C35.3378 30.3068 35.8605 27.9432 36.906 25.9205C37.9514 23.8864 39.4344 22.3068 41.3548 21.1818C43.2866 20.0455 45.5764 19.4773 48.2241 19.4773C50.8719 19.4773 53.156 20.0455 55.0764 21.1818C57.0082 22.3068 58.4969 23.8864 59.5423 25.9205C60.5878 27.9432 61.1105 30.3068 61.1105 33.0114C61.1105 35.6932 60.5878 38.0511 59.5423 40.0852C58.4969 42.108 57.0082 43.6875 55.0764 44.8239C53.156 45.9489 50.8719 46.5114 48.2241 46.5114ZM48.2582 40.8864C49.4628 40.8864 50.4685 40.5455 51.2753 39.8636C52.0821 39.1705 52.6901 38.2273 53.0991 37.0341C53.5196 35.8409 53.7298 34.483 53.7298 32.9602C53.7298 31.4375 53.5196 30.0795 53.0991 28.8864C52.6901 27.6932 52.0821 26.75 51.2753 26.0568C50.4685 25.3636 49.4628 25.017 48.2582 25.017C47.0423 25.017 46.0196 25.3636 45.1901 26.0568C44.3719 26.75 43.7526 27.6932 43.3321 28.8864C42.923 30.0795 42.7185 31.4375 42.7185 32.9602C42.7185 34.483 42.923 35.8409 43.3321 37.0341C43.7526 38.2273 44.3719 39.1705 45.1901 39.8636C46.0196 40.5455 47.0423 40.8864 48.2582 40.8864ZM73.6798 46.4261C71.6912 46.4261 69.8901 45.9148 68.2764 44.892C66.6741 43.858 65.4014 42.3409 64.4582 40.3409C63.5264 38.3295 63.0605 35.8636 63.0605 32.9432C63.0605 29.9432 63.5435 27.4489 64.5094 25.4602C65.4753 23.4602 66.7594 21.9659 68.3616 20.9773C69.9753 19.9773 71.7423 19.4773 73.6628 19.4773C75.1287 19.4773 76.3503 19.7273 77.3276 20.2273C78.3162 20.7159 79.1116 21.3295 79.7139 22.0682C80.3276 22.7955 80.7935 23.5114 81.1116 24.2159H81.3332V11.0909H88.5776V46H81.4185V41.8068H81.1116C80.7707 42.5341 80.2878 43.2557 79.6628 43.9716C79.0491 44.6761 78.248 45.2614 77.2594 45.7273C76.2821 46.1932 75.0889 46.4261 73.6798 46.4261ZM75.981 40.6477C77.1514 40.6477 78.1401 40.3295 78.9469 39.6932C79.7651 39.0455 80.3901 38.142 80.8219 36.983C81.2651 35.8239 81.4866 34.4659 81.4866 32.9091C81.4866 31.3523 81.2707 30 80.8389 28.8523C80.4071 27.7045 79.7821 26.8182 78.9639 26.1932C78.1457 25.5682 77.1514 25.2557 75.981 25.2557C74.7878 25.2557 73.7821 25.5795 72.9639 26.2273C72.1457 26.875 71.5264 27.7727 71.106 28.9205C70.6855 30.0682 70.4753 31.3977 70.4753 32.9091C70.4753 34.4318 70.6855 35.7784 71.106 36.9489C71.5378 38.108 72.1571 39.017 72.9639 39.6761C73.7821 40.3239 74.7878 40.6477 75.981 40.6477ZM104.68 46.5114C101.986 46.5114 99.6682 45.9659 97.725 44.875C95.7932 43.7727 94.3045 42.2159 93.2591 40.2045C92.2136 38.1818 91.6909 35.7898 91.6909 33.0284C91.6909 30.3352 92.2136 27.9716 93.2591 25.9375C94.3045 23.9034 95.7761 22.3182 97.6739 21.1818C99.583 20.0455 101.822 19.4773 104.39 19.4773C106.117 19.4773 107.725 19.7557 109.214 20.3125C110.714 20.858 112.02 21.6818 113.134 22.7841C114.259 23.8864 115.134 25.2727 115.759 26.9432C116.384 28.6023 116.697 30.5455 116.697 32.7727V34.767H94.5886V30.267H109.861C109.861 29.2216 109.634 28.2955 109.18 27.4886C108.725 26.6818 108.094 26.0511 107.287 25.5966C106.492 25.1307 105.566 24.8977 104.509 24.8977C103.407 24.8977 102.43 25.1534 101.577 25.6648C100.736 26.1648 100.077 26.8409 99.6 27.6932C99.1227 28.5341 98.8784 29.4716 98.867 30.5057V34.7841C98.867 36.0795 99.1057 37.1989 99.583 38.142C100.072 39.0852 100.759 39.8125 101.645 40.3239C102.532 40.8352 103.583 41.0909 104.799 41.0909C105.606 41.0909 106.344 40.9773 107.015 40.75C107.685 40.5227 108.259 40.1818 108.736 39.7273C109.214 39.2727 109.577 38.7159 109.827 38.0568L116.543 38.5C116.202 40.1136 115.503 41.5227 114.447 42.7273C113.401 43.9205 112.049 44.8523 110.39 45.5227C108.742 46.1818 106.839 46.5114 104.68 46.5114ZM150.573 23.3125H143.107C142.97 22.3466 142.692 21.4886 142.272 20.7386C141.851 19.9773 141.311 19.3295 140.652 18.7955C139.993 18.2614 139.232 17.8523 138.368 17.5682C137.516 17.2841 136.59 17.142 135.59 17.142C133.783 17.142 132.209 17.5909 130.868 18.4886C129.527 19.375 128.488 20.6705 127.749 22.375C127.01 24.0682 126.641 26.125 126.641 28.5455C126.641 31.0341 127.01 33.125 127.749 34.8182C128.499 36.5114 129.544 37.7898 130.885 38.6534C132.226 39.517 133.777 39.9489 135.539 39.9489C136.527 39.9489 137.442 39.8182 138.283 39.5568C139.135 39.2955 139.891 38.9148 140.55 38.4148C141.209 37.9034 141.755 37.2841 142.186 36.5568C142.63 35.8295 142.936 35 143.107 34.0682L150.573 34.1023C150.38 35.7045 149.897 37.25 149.124 38.7386C148.363 40.2159 147.334 41.5398 146.039 42.7102C144.755 43.8693 143.22 44.7898 141.436 45.4716C139.664 46.142 137.658 46.4773 135.419 46.4773C132.306 46.4773 129.522 45.7727 127.067 44.3636C124.624 42.9545 122.692 40.9148 121.272 38.2443C119.863 35.5739 119.158 32.3409 119.158 28.5455C119.158 24.7386 119.874 21.5 121.306 18.8295C122.738 16.1591 124.681 14.125 127.135 12.7273C129.59 11.3182 132.351 10.6136 135.419 10.6136C137.442 10.6136 139.317 10.8977 141.044 11.4659C142.783 12.0341 144.323 12.8636 145.664 13.9545C147.005 15.0341 148.095 16.358 148.936 17.9261C149.789 19.4943 150.334 21.2898 150.573 23.3125ZM161.19 30.8636V46H153.929V11.0909H160.986V24.4375H161.293C161.884 22.892 162.838 21.6818 164.156 20.8068C165.474 19.9205 167.128 19.4773 169.116 19.4773C170.935 19.4773 172.52 19.875 173.872 20.6705C175.236 21.4545 176.293 22.5852 177.043 24.0625C177.804 25.5284 178.179 27.2841 178.168 29.3295V46H170.906V30.625C170.918 29.0114 170.509 27.7557 169.679 26.858C168.861 25.9602 167.713 25.5114 166.236 25.5114C165.247 25.5114 164.372 25.7216 163.611 26.142C162.861 26.5625 162.27 27.1761 161.838 27.983C161.418 28.7784 161.202 29.7386 161.19 30.8636ZM182.082 46V19.8182H189.122V24.3864H189.395C189.872 22.7614 190.673 21.5341 191.798 20.7045C192.923 19.8636 194.218 19.4432 195.684 19.4432C196.048 19.4432 196.44 19.4659 196.861 19.5114C197.281 19.5568 197.65 19.6193 197.968 19.6989V26.142C197.628 26.0398 197.156 25.9489 196.554 25.8693C195.951 25.7898 195.4 25.75 194.9 25.75C193.832 25.75 192.878 25.983 192.037 26.4489C191.207 26.9034 190.548 27.5398 190.059 28.358C189.582 29.1761 189.343 30.1193 189.343 31.1875V46H182.082ZM210.534 46.5114C207.886 46.5114 205.596 45.9489 203.664 44.8239C201.744 43.6875 200.261 42.108 199.215 40.0852C198.17 38.0511 197.647 35.6932 197.647 33.0114C197.647 30.3068 198.17 27.9432 199.215 25.9205C200.261 23.8864 201.744 22.3068 203.664 21.1818C205.596 20.0455 207.886 19.4773 210.534 19.4773C213.181 19.4773 215.465 20.0455 217.386 21.1818C219.318 22.3068 220.806 23.8864 221.852 25.9205C222.897 27.9432 223.42 30.3068 223.42 33.0114C223.42 35.6932 222.897 38.0511 221.852 40.0852C220.806 42.108 219.318 43.6875 217.386 44.8239C215.465 45.9489 213.181 46.5114 210.534 46.5114ZM210.568 40.8864C211.772 40.8864 212.778 40.5455 213.585 39.8636C214.391 39.1705 214.999 38.2273 215.409 37.0341C215.829 35.8409 216.039 34.483 216.039 32.9602C216.039 31.4375 215.829 30.0795 215.409 28.8864C214.999 27.6932 214.391 26.75 213.585 26.0568C212.778 25.3636 211.772 25.017 210.568 25.017C209.352 25.017 208.329 25.3636 207.499 26.0568C206.681 26.75 206.062 27.6932 205.641 28.8864C205.232 30.0795 205.028 31.4375 205.028 32.9602C205.028 34.483 205.232 35.8409 205.641 37.0341C206.062 38.2273 206.681 39.1705 207.499 39.8636C208.329 40.5455 209.352 40.8864 210.568 40.8864ZM233.603 30.8636V46H226.341V19.8182H233.262V24.4375H233.569C234.148 22.9148 235.12 21.7102 236.484 20.8239C237.847 19.9261 239.501 19.4773 241.444 19.4773C243.262 19.4773 244.847 19.875 246.199 20.6705C247.552 21.4659 248.603 22.6023 249.353 24.0795C250.103 25.5455 250.478 27.2955 250.478 29.3295V46H243.216V30.625C243.228 29.0227 242.819 27.7727 241.989 26.875C241.16 25.9659 240.018 25.5114 238.563 25.5114C237.586 25.5114 236.722 25.7216 235.972 26.142C235.234 26.5625 234.654 27.1761 234.234 27.983C233.824 28.7784 233.614 29.7386 233.603 30.8636ZM254.401 46V19.8182H261.662V46H254.401ZM258.049 16.4432C256.969 16.4432 256.043 16.0852 255.27 15.3693C254.509 14.642 254.128 13.7727 254.128 12.7614C254.128 11.7614 254.509 10.9034 255.27 10.1875C256.043 9.46023 256.969 9.09659 258.049 9.09659C259.128 9.09659 260.049 9.46023 260.81 10.1875C261.583 10.9034 261.969 11.7614 261.969 12.7614C261.969 13.7727 261.583 14.642 260.81 15.3693C260.049 16.0852 259.128 16.4432 258.049 16.4432ZM277.509 46.5114C274.827 46.5114 272.52 45.9432 270.588 44.8068C268.668 43.6591 267.19 42.0682 266.156 40.0341C265.134 38 264.622 35.6591 264.622 33.0114C264.622 30.3295 265.139 27.9773 266.173 25.9545C267.219 23.9205 268.702 22.3352 270.622 21.1989C272.543 20.0511 274.827 19.4773 277.474 19.4773C279.759 19.4773 281.759 19.892 283.474 20.7216C285.19 21.5511 286.548 22.7159 287.548 24.2159C288.548 25.7159 289.099 27.4773 289.202 29.5H282.349C282.156 28.1932 281.645 27.142 280.815 26.3466C279.997 25.5398 278.923 25.1364 277.594 25.1364C276.469 25.1364 275.486 25.4432 274.645 26.0568C273.815 26.6591 273.168 27.5398 272.702 28.6989C272.236 29.858 272.003 31.2614 272.003 32.9091C272.003 34.5795 272.23 36 272.685 37.1705C273.151 38.3409 273.804 39.233 274.645 39.8466C275.486 40.4602 276.469 40.767 277.594 40.767C278.423 40.767 279.168 40.5966 279.827 40.2557C280.497 39.9148 281.048 39.4205 281.48 38.7727C281.923 38.1136 282.213 37.3239 282.349 36.4034H289.202C289.088 38.4034 288.543 40.1648 287.565 41.6875C286.599 43.1989 285.264 44.3807 283.56 45.233C281.855 46.0852 279.838 46.5114 277.509 46.5114ZM299.312 11.0909V46H292.051V11.0909H299.312ZM315.261 46.5114C312.568 46.5114 310.249 45.9659 308.306 44.875C306.374 43.7727 304.886 42.2159 303.84 40.2045C302.795 38.1818 302.272 35.7898 302.272 33.0284C302.272 30.3352 302.795 27.9716 303.84 25.9375C304.886 23.9034 306.357 22.3182 308.255 21.1818C310.164 20.0455 312.403 19.4773 314.971 19.4773C316.698 19.4773 318.306 19.7557 319.795 20.3125C321.295 20.858 322.602 21.6818 323.715 22.7841C324.84 23.8864 325.715 25.2727 326.34 26.9432C326.965 28.6023 327.278 30.5455 327.278 32.7727V34.767H305.17V30.267H320.443C320.443 29.2216 320.215 28.2955 319.761 27.4886C319.306 26.6818 318.676 26.0511 317.869 25.5966C317.073 25.1307 316.147 24.8977 315.09 24.8977C313.988 24.8977 313.011 25.1534 312.159 25.6648C311.318 26.1648 310.659 26.8409 310.181 27.6932C309.704 28.5341 309.46 29.4716 309.448 30.5057V34.7841C309.448 36.0795 309.687 37.1989 310.164 38.142C310.653 39.0852 311.34 39.8125 312.227 40.3239C313.113 40.8352 314.164 41.0909 315.38 41.0909C316.187 41.0909 316.926 40.9773 317.596 40.75C318.266 40.5227 318.84 40.1818 319.318 39.7273C319.795 39.2727 320.159 38.7159 320.409 38.0568L327.124 38.5C326.784 40.1136 326.085 41.5227 325.028 42.7273C323.982 43.9205 322.63 44.8523 320.971 45.5227C319.323 46.1818 317.42 46.5114 315.261 46.5114ZM352.001 27.2841L345.353 27.6932C345.239 27.125 344.995 26.6136 344.62 26.1591C344.245 25.6932 343.751 25.3239 343.137 25.0511C342.535 24.767 341.813 24.625 340.972 24.625C339.847 24.625 338.898 24.8636 338.126 25.3409C337.353 25.8068 336.966 26.4318 336.966 27.2159C336.966 27.8409 337.216 28.3693 337.716 28.8011C338.216 29.233 339.074 29.5795 340.29 29.8409L345.029 30.7955C347.574 31.3182 349.472 32.1591 350.722 33.3182C351.972 34.4773 352.597 36 352.597 37.8864C352.597 39.6023 352.091 41.108 351.08 42.4034C350.08 43.6989 348.705 44.7102 346.955 45.4375C345.216 46.1534 343.211 46.5114 340.938 46.5114C337.472 46.5114 334.711 45.7898 332.654 44.3466C330.609 42.892 329.41 40.9148 329.057 38.4148L336.199 38.0398C336.415 39.0966 336.938 39.9034 337.768 40.4602C338.597 41.0057 339.66 41.2784 340.955 41.2784C342.228 41.2784 343.251 41.0341 344.023 40.5455C344.807 40.0455 345.205 39.4034 345.216 38.6193C345.205 37.9602 344.927 37.4205 344.381 37C343.836 36.5682 342.995 36.2386 341.859 36.0114L337.324 35.108C334.768 34.5966 332.864 33.7102 331.614 32.4489C330.376 31.1875 329.756 29.5795 329.756 27.625C329.756 25.9432 330.211 24.4943 331.12 23.2784C332.04 22.0625 333.33 21.125 334.989 20.4659C336.66 19.8068 338.614 19.4773 340.853 19.4773C344.16 19.4773 346.762 20.1761 348.66 21.5739C350.569 22.9716 351.682 24.875 352.001 27.2841Z" fill="#233D4A"/>
<mask id="mask0_4_33" style="mask-type:alpha" maskUnits="userSpaceOnUse" x="32" y="18" width="32" height="32">
<path d="M62.9203 30.0593C61.7526 27.6038 60.391 25.2454 58.8482 23.0064L58.3506 22.2912C57.738 21.4023 56.9351 20.6611 56.0002 20.1214C55.0653 19.5817 54.0217 19.2571 52.9457 19.1711L52.0721 19.1007C49.3616 18.8831 46.6383 18.8831 43.9279 19.1007L43.0543 19.1711C41.9782 19.2571 40.9348 19.5817 39.9999 20.1214C39.0649 20.6611 38.262 21.4023 37.6494 22.2912L37.1518 23.0128C35.609 25.2518 34.2474 27.6102 33.0797 30.0657L32.7037 30.8561C32.2404 31.831 32 32.8968 32 33.9762C32 35.0556 32.2404 36.1214 32.7037 37.0963L33.0797 37.8867C34.2474 40.3422 35.609 42.7007 37.1518 44.9396L37.6494 45.6612C38.262 46.5501 39.0649 47.2913 39.9999 47.831C40.9348 48.3707 41.9782 48.6954 43.0543 48.7813L43.9279 48.8517C46.6383 49.0693 49.3616 49.0693 52.0721 48.8517L52.9457 48.7813C54.0225 48.6943 55.0665 48.3682 56.0014 47.8267C56.9365 47.2853 57.7389 46.5422 58.3506 45.6516L58.8482 44.93C60.391 42.6911 61.7526 40.3326 62.9203 37.8771L63.2963 37.0867C63.7595 36.1118 64 35.046 64 33.9666C64 32.8872 63.7595 31.8214 63.2963 30.8465L62.9203 30.0593Z" fill="white"/>
</mask>
<g mask="url(#mask0_4_33)">
<rect x="32" y="18" width="32" height="32" fill="#73B0AC"/>
</g>
<mask id="mask1_4_33" style="mask-type:alpha" maskUnits="userSpaceOnUse" x="195" y="17" width="32" height="32">
<path d="M225.92 29.0593C224.753 26.6038 223.391 24.2454 221.848 22.0064L221.351 21.2912C220.738 20.4023 219.935 19.6611 219 19.1214C218.065 18.5817 217.022 18.2571 215.946 18.1711L215.072 18.1007C212.362 17.8831 209.638 17.8831 206.928 18.1007L206.054 18.1711C204.978 18.2571 203.935 18.5817 203 19.1214C202.065 19.6611 201.262 20.4023 200.649 21.2912L200.152 22.0128C198.609 24.2518 197.247 26.6102 196.08 29.0657L195.704 29.8561C195.24 30.831 195 31.8968 195 32.9762C195 34.0556 195.24 35.1214 195.704 36.0963L196.08 36.8867C197.247 39.3422 198.609 41.7007 200.152 43.9396L200.649 44.6612C201.262 45.5501 202.065 46.2913 203 46.831C203.935 47.3707 204.978 47.6954 206.054 47.7813L206.928 47.8517C209.638 48.0693 212.362 48.0693 215.072 47.8517L215.946 47.7813C217.023 47.6943 218.067 47.3682 219.001 46.8267C219.936 46.2853 220.739 45.5422 221.351 44.6516L221.848 43.93C223.391 41.6911 224.753 39.3326 225.92 36.8771L226.296 36.0867C226.76 35.1118 227 34.046 227 32.9666C227 31.8872 226.76 30.8214 226.296 29.8465L225.92 29.0593Z" fill="white"/>
</mask>
<g mask="url(#mask1_4_33)">
<rect x="195" y="17" width="32" height="32" fill="#73B0AC"/>
</g>
</svg>
